<?xml version="1.0" encoding="utf-8"?>
<!-- Generator: Adobe Illustrator 24.0.1, SVG Export Plug-In . SVG Version: 6.00 Build 0)  -->
<svg version="1.1" id="Layer_1" xmlns="http://www.w3.org/2000/svg" xmlns:xlink="http://www.w3.org/1999/xlink" x="0px" y="0px"
	 viewBox="0 0 1440 320" style="enable-background:new 0 0 1440 320;" xml:space="preserve">
<style type="text/css">
	.st0{fill:#456EB0;}
	.st1{fill:#456EB0;stroke:#456EB0;stroke-miterlimit:10;}
</style>
<path class="st0" d="M1400,65.2c-40-6.3-120-17.4-200,11.8c-80,29.7-160,100.8-240,106.7C880,190,800,130,720,88.9
	c-80-41.1-160-65.6-240-59.2c-80,5.9-160,41.4-240,41.4S80,35.6,40,17.8L0,0v161.7c2-1.7,4.1-3.3,6.3-4.9
	c15.3-11.6,35.1-15.5,53.8-16.6c13.8-0.8,27.6,0.9,41.3,1.3c19.4,0.6,38.3,2.1,57.5,5.4c17.1,2.9,34.2,6.2,51.4,8.7
	c22,2.8,44.1,4.9,66.2,6.8c4,0.3,8,0.7,12,1c24.1-16.9,55.9-20.4,84.5-16.8c15.5,1.9,30.6,4.7,45.8,8.1c10,2.2,20,4.6,30.1,6.3
	c19.4,1.8,38.9-0.1,58.4-0.4c39.7-0.7,79.4,9.9,117.7,19.5c34.6,8.7,69.3,18,104.6,23.1c12.2,1.5,24.5,2.7,36.8,2.5
	c9.4-0.1,18.4,0,27.8,1.2c16.5,2.2,33.1,9.3,41.6,24.5c3.3,5.8,5.2,11.8,6,17.7c4.1,0.4,8.3,0.7,12.4,1c45.1,3.1,89.6-6.1,134.7-6.5
	c22.9-0.2,45.7-1.7,68.5-2.9c20.9-1.1,41.8-1.5,62.6-3.9c25-3.6,49.7-8.8,74.6-13.2c11.7-2.1,23.4-3.6,35-6.1
	c11.1-2.4,22.2-5.3,33.2-8.2c25.2-6.6,50.6-12.7,76.7-14.3c24.2-1.5,48.5,0.6,72.8,0.1c9.2-0.2,18.4-0.7,27.7-1.3V71.1L1400,65.2z"
	/>
<path class="st0" d="M40,255.8c40,4.7,120,13,200-8.8c80-22.2,160-75.3,240-79.7c80-4.7,160,40.1,240,70.8c80,30.7,160,49,240,44.3
	c80-4.4,160-31,240-31s160,26.6,200,39.9l40,13.3V183.7c-2,1.2-4.1,2.5-6.3,3.7c-15.3,8.6-35.1,11.6-53.8,12.4
	c-13.8,0.6-27.6-0.7-41.3-1c-19.4-0.4-38.3-1.6-57.5-4c-17.1-2.2-34.2-4.7-51.4-6.5c-22-2.1-44.1-3.7-66.2-5.1c-4-0.3-8-0.5-12-0.7
	c-24.1,12.6-55.9,15.3-84.5,12.6c-15.5-1.5-30.6-3.5-45.8-6c-10-1.7-20-3.5-30.1-4.7c-19.4-1.4-38.9,0.1-58.4,0.3
	c-39.7,0.5-79.4-7.4-117.7-14.5c-34.6-6.5-69.3-13.4-104.6-17.3c-12.2-1.1-24.5-2-36.8-1.9c-9.4,0.1-18.4,0-27.8-0.9
	c-16.5-1.7-33.1-6.9-41.6-18.3c-3.3-4.4-5.2-8.8-6-13.2c-4.1-0.3-8.3-0.6-12.4-0.8c-45.1-2.3-89.6,4.6-134.7,4.8
	c-22.9,0.1-45.7,1.3-68.5,2.2c-20.9,0.8-41.8,1.1-62.6,2.9c-25,2.7-49.7,6.6-74.6,9.9c-11.7,1.5-23.4,2.7-35,4.6
	c-11.1,1.8-22.2,3.9-33.2,6.1c-25.2,4.9-50.6,9.5-76.7,10.7c-24.2,1.1-48.5-0.4-72.8-0.1c-9.2,0.1-18.4,0.5-27.7,1l0,91.6L40,255.8z
	"/>
<rect y="117.3" class="st1" width="199" height="54.7"/>
<rect x="1284" y="160" class="st1" width="161" height="55"/>
</svg>
