<?xml version="1.0" encoding="utf-8"?>
<!-- Generator: Adobe Illustrator 24.0.1, SVG Export Plug-In . SVG Version: 6.00 Build 0)  -->
<svg version="1.1" id="Layer_1" xmlns="http://www.w3.org/2000/svg" xmlns:xlink="http://www.w3.org/1999/xlink" x="0px" y="0px"
	 viewBox="0 0 786.8 572.3" style="enable-background:new 0 0 786.8 572.3;" xml:space="preserve">
<style type="text/css">
	.st0{fill:#F2F2F2;}
	.st1{fill:#3F3D56;}
	.st2{fill:#FFFFFF;}
	.st3{fill:#2F2E41;}
	.st4{fill:#FFB6B6;}
	.st5{opacity:0.2;enable-background:new    ;}
</style>
<ellipse class="st0" cx="2.4" cy="-278.8" rx="95.5" ry="81.6"/>
<path class="st0" d="M743,1014c142-92.3,209.5-247.6,167.4-395.8c-1.1-3.7-2.1-7.3-3.2-11c-28.3-88-97.6-171.4-199.2-199.6
	c-85.1-23.5-178.1-5.5-267.1-15c-174.5-18.3-309.7-139-404.8-265.2s-168.5-267.7-294.7-371.9c-208.5-172.1-548.6-209-806.7-97.2
	c-258.6,112.2-423,360.3-416.2,607.9c7.2,247.6,178.8,484.1,428.7,609.7c91.9,46.1,197.8,78.9,303.2,67.3
	c91.6-9.8,174.8-52,266.1-64.5c143.4-19.5,285.7,35.7,409.8,100.3s243.9,141,384.8,171C448,1179.3,617.5,1095.6,743,1014z"/>
<path class="st1" d="M539.2-336.5c-3.2-1.8-6.5-3.4-9.3-5.2c-89.7-49.2-186.2-89.3-287-118.8l-23.3,275.7H71.2V-501
	c-9.3-1.5-18.6-3.4-28.3-4.6V-185h-176.3c-202,0-365.8-140-365.8-312.7l0,0c-9.3,1.8-19,3.7-28.3,5.5v306.8h-143.4L-693-448.2
	c-103.7,33.9-202,78.6-292.9,132.9c-1.5,0.9-3.2,1.8-4.7,2.8c-7.8,4.9-15.8,9.5-23.6,14.4v1052h423l-7.5-88.6l-41.1-486h828.1
	l-41.1,486l-7.5,88.6H558V-325.8C551.8-329.5,545.6-332.9,539.2-336.5z M-527.1,99.8h-119.4l-22.2-260.7h141.6V99.8L-527.1,99.8z
	 M42.9,99.8h-200.6v-5.2c0-10.4-10.1-18.9-22.1-18.9l0,0h-86.9c-12.2,0-22.1,8.5-22.1,18.9l0,0v5.2h-210v-260.7H42.9V99.8z
	 M71.2,99.8v-260.7h146.2L195.2,99.8H71.2z"/>
<path class="st1" d="M606.1,821.4h-11.4c-1.1,0-1.8-0.6-1.8-1.5v-4.6c0-0.9,0.7-1.5,1.8-1.5h11.4c1.1,0,1.8,0.6,1.8,1.5v4.6
	C607.9,820.8,607.1,821.4,606.1,821.4z"/>
<path class="st2" d="M-729.7,644.4h6.5c2.1,0,3.7,1.5,3.7,3.5l0,0c0,2-1.6,3.5-3.7,3.5h-6.5c-2.1,0-3.7-1.5-3.7-3.5l0,0
	C-733.4,646-731.7,644.4-729.7,644.4z"/>
<path class="st2" d="M-654.3,644.4h6.5c2.1,0,3.7,1.5,3.7,3.5l0,0c0,2-1.6,3.5-3.7,3.5h-6.5c-2.1,0-3.7-1.5-3.7-3.5l0,0
	C-657.8,646-656.2,644.4-654.3,644.4z"/>
<path class="st2" d="M-633,644.4h6.5c2.1,0,3.7,1.5,3.7,3.5l0,0c0,2-1.6,3.5-3.7,3.5h-6.5c-2.1,0-3.7-1.5-3.7-3.5l0,0
	C-636.5,646-634.8,644.4-633,644.4z"/>
<path class="st2" d="M-709.3,644h41c2.1,0,3.7,1.5,3.7,3.5l0,0c0,2-1.6,3.5-3.7,3.5h-41c-2.1,0-3.7-1.5-3.7-3.5l0,0
	C-712.8,645.6-711.2,644-709.3,644z"/>
<path class="st2" d="M-709.5,660.1h6.5c2.1,0,3.7,1.5,3.7,3.5l0,0c0,2-1.6,3.5-3.7,3.5h-6.5c-2.1,0-3.7-1.5-3.7-3.5l0,0
	C-713.2,661.6-711.6,660.1-709.5,660.1z"/>
<path class="st2" d="M-634.2,660.1h6.5c2.1,0,3.7,1.5,3.7,3.5l0,0c0,2-1.6,3.5-3.7,3.5h-6.5c-2.1,0-3.7-1.5-3.7-3.5l0,0
	C-637.9,661.6-636.3,660.1-634.2,660.1z"/>
<path class="st2" d="M-612.9,660.1h6.5c2.1,0,3.7,1.5,3.7,3.5l0,0c0,2-1.6,3.5-3.7,3.5h-6.5c-2.1,0-3.7-1.5-3.7-3.5l0,0
	C-616.6,661.6-614.9,660.1-612.9,660.1z"/>
<path class="st2" d="M-689.2,659.4h41c2.1,0,3.7,1.5,3.7,3.5l0,0c0,2-1.6,3.5-3.7,3.5h-41c-2.1,0-3.7-1.5-3.7-3.5l0,0
	C-692.7,661-691.2,659.4-689.2,659.4z"/>
<path class="st2" d="M-689.6,675.5h6.5c2.1,0,3.7,1.5,3.7,3.5l0,0c0,2-1.6,3.5-3.7,3.5h-6.5c-2.1,0-3.7-1.5-3.7-3.5l0,0
	C-693.1,677-691.5,675.5-689.6,675.5z"/>
<path class="st2" d="M-669.5,691.1h6.5c2.1,0,3.7,1.5,3.7,3.5l0,0c0,2-1.6,3.5-3.7,3.5h-6.5c-2.1,0-3.7-1.5-3.7-3.5l0,0
	C-673.2,692.6-671.5,691.1-669.5,691.1z"/>
<path class="st2" d="M-594.1,691.1h6.5c2.1,0,3.7,1.5,3.7,3.5l0,0c0,2-1.6,3.5-3.7,3.5h-6.5c-2.1,0-3.7-1.5-3.7-3.5l0,0
	C-597.6,692.6-596,691.1-594.1,691.1z"/>
<path class="st2" d="M-572.8,691.1h6.5c2.1,0,3.7,1.5,3.7,3.5l0,0c0,2-1.6,3.5-3.7,3.5h-6.5c-2.1,0-3.7-1.5-3.7-3.5l0,0
	C-576.3,692.6-574.6,691.1-572.8,691.1z"/>
<path class="st2" d="M-648.8,690.5h41c2.1,0,3.7,1.5,3.7,3.5l0,0c0,2-1.6,3.5-3.7,3.5h-41c-2.1,0-3.7-1.5-3.7-3.5l0,0
	C-652.5,692-650.9,690.5-648.8,690.5z"/>
<path class="st1" d="M-951.5,829.4v30.3c0,3.4,3.2,5.9,6.8,5.9h244.6c3.9,0,6.8-2.8,6.8-5.9v-30.3H-951.5z"/>
<path class="st1" d="M835.9,658.2c3.2,15.3,37.9,26,80,23.8c38.6-1.5,70.1-13.1,75.8-26.9c-2.1-0.6-4.3-0.9-6.5-0.6l-145.9,3.4
	C838.5,657.9,837,657.9,835.9,658.2z"/>
<g>
	<path class="st3" d="M843.9,842.6c3.2,7.9,12.2,13.5,22.1,13.1l94.8-2.2c10.1-0.3,18.6-6.2,21.5-14.4L995.5,717
		c4.7,1.8,10.1,2.8,15,2.8c19-0.3,34-14.1,33.6-30.3c-0.3-16.2-16.4-29.1-35.4-28.8c-2.1,0-4.3,0.3-6,0.6
		c-4.7-4.3-10.7-6.4-17.5-6.4l-145.9,3.4c-1.1,0-2.5,0.3-3.6,0.3c-12.5,1.8-20.3,12.2-18.2,22.6c0.3,0.9,0.3,1.8,0.7,2.5
		L843.9,842.6z M998.4,708.6l9.6-29.4c1.1-3.4,1.1-7,0-10.4c0.3,0,0.7-0.3,1.5-0.3c13.6-0.3,25,9.1,25.4,20.7
		c0.3,11.6-10.4,21.4-23.9,21.7C1006.2,711.1,1001.9,710.5,998.4,708.6z"/>
	<path d="M923.6,775.3c0.3,0,0.3,0,0.7-0.3l20.8-11.6c0.7-0.6,1.1-1.5,0.3-2.2c0-0.3-0.3-0.3-0.3-0.3L923.6,749
		c-0.7-0.6-1.8-0.3-2.5,0.3s-0.3,1.5,0.3,2.2l19,10.7l-18.2,10.1c-0.7,0.6-1.1,1.5-0.3,2.2C922.1,775,922.9,775.3,923.6,775.3
		L923.6,775.3z"/>
	<path d="M891,776.5c1.1-0.3,1.5-0.9,1.5-1.8c0-0.3-0.3-0.6-0.7-0.9l-19-9.1L891,753c0.7-0.6,1.1-1.5,0.3-2.2
		c-0.7-0.6-1.8-0.9-2.5-0.3l-20.3,13.1c-0.7,0.6-1.1,1.5-0.3,2.2c0,0.3,0.3,0.3,0.7,0.3l21.5,10.4
		C890.4,776.5,890.7,776.5,891,776.5z"/>
	<path d="M937.5,796.6c0,0,0.5,0,0.5-0.4c1.1-0.4,1.6-2.3,1.1-3.2l0,0l-44.2-61.7c-0.5-0.9-2.6-1.3-3.8-0.9
		c-1.1,0.4-1.6,2.3-1.1,3.2l44.2,61.7C935.4,796.2,936.4,796.6,937.5,796.6z"/>
</g>
<g>
	<path class="st3" d="M234,487.7v339h308.3v-339c0-5-4.4-9.5-10.2-10.9c-1.3-0.3-3.1-0.6-4.4-0.6H249.4
		C240.4,476.1,234,481.4,234,487.7L234,487.7z M354,604.2c0-13.9,14.9-25.1,33-25.1c18,0,32.7,11.3,32.7,25.1v39.4
		c0,13.9-14.9,25.4-33,25.1c-18,0-32.7-11.3-32.7-25.1V604.2z"/>
	<path class="st1" d="M-250.7-23.2v619.5c0,16.6,17.1,29.8,38.6,29.8H978c21.5,0,38.6-13.2,38.6-29.8V-23.2
		c0-16.6-17.1-29.8-38.6-29.8H-212.1C-233.4-53-250.7-39.8-250.7-23.2z"/>
	<path class="st2" d="M-222.8-15.7v603.9c0,8.9,9.4,15.9,20.6,15.9H968.1c11.6,0,20.6-7.3,20.6-15.9V-15.7c0-8.9-9.4-15.9-20.6-15.9
		H-202.2C-213.7-31.6-222.8-24.5-222.8-15.7z"/>
	<path class="st3" d="M-5.8,852.8c2.5,2.4,6,3.7,9.9,3.7h696c6.9,0,12.9-4.3,12.9-9.8c0-0.6,0-1.3-0.3-1.9L702,805
		c-0.9-3.4-3.8-6-8.2-7.3c-1.3-0.3-3.1-0.6-4.7-0.6H14.8c-1.7,0-3.1,0.3-4.7,0.6c-3.8,1.3-6.9,4-8.2,7.3l-10.7,39.7
		C-9.2,847.5-8.3,850.5-5.8,852.8z"/>
</g>
<path class="st1" d="M-1622.2,838.3c31.1,31.4,64.7,61.1,100.5,88.6l2612.4,3.1c35.8-27.5,69.4-57.1,100.5-88.6L-1622.2,838.3z"/>
<g>
	<path class="st1" d="M-1111.4,557.4v261.9c0,7,6.5,12.5,14.6,12.5h454.1c8.3,0,14.6-5.5,14.6-12.5V557.4c0-7-6.5-12.5-14.6-12.5
		h-454.1C-1104.6,544.9-1111.4,550.3-1111.4,557.4z"/>
	<path d="M-1100.7,560.7v255.5c0,3.7,3.6,6.7,7.8,6.7h446.6c4.3,0,7.8-3.1,7.8-6.7V560.7c0-3.7-3.6-6.7-7.8-6.7h-446.6
		C-1097.1,554-1100.7,556.8-1100.7,560.7z"/>
	<path class="st3" d="M-1120.7,870.3c1.8,1.8,4.3,2.8,6.8,2.8h486.3c5,0,8.9-3.4,8.9-7.6c0-0.6,0-0.9-0.3-1.5l-7.5-30.6
		c-0.7-2.5-2.9-4.6-5.7-5.5c-1.1-0.3-2.1-0.6-3.2-0.6h-471c-1.1,0-2.1,0.3-3.2,0.6c-2.9,0.9-5,3.1-5.7,5.5l-7.5,30.6
		C-1123.3,866.4-1122.5,868.5-1120.7,870.3z"/>
	<path class="st1" d="M-670.2,840.4h-11.4c-1.1,0-1.8-0.6-1.8-1.5v-4.6c0-0.9,0.7-1.5,1.8-1.5h11.4c1.1,0,1.8,0.6,1.8,1.5v4.6
		C-668.4,839.8-669.5,840.4-670.2,840.4z"/>
	<path class="st1" d="M-700.3,840.4h-11.4c-1.1,0-1.8-0.6-1.8-1.5v-4.6c0-0.9,0.7-1.5,1.8-1.5h11.4c1.1,0,1.8,0.6,1.8,1.5v4.6
		C-698.5,839.8-699.1,840.4-700.3,840.4z"/>
	<path class="st1" d="M-730.2,840.4h-11.4c-1.1,0-1.8-0.6-1.8-1.5v-4.6c0-0.9,0.7-1.5,1.8-1.5h11.4c1.1,0,1.8,0.6,1.8,1.5v4.6
		C-728.4,839.8-729.2,840.4-730.2,840.4z"/>
	<path class="st1" d="M-760.3,840.4h-11.4c-1.1,0-1.8-0.6-1.8-1.5v-4.6c0-0.9,0.7-1.5,1.8-1.5h11.4c1.1,0,1.8,0.6,1.8,1.5v4.6
		C-758.5,839.8-759.3,840.4-760.3,840.4z"/>
	<path class="st1" d="M-790,840.4h-11.8c-1.1,0-1.8-0.6-1.8-1.5v-4.6c0-0.9,0.7-1.5,1.8-1.5h11.4c1.1,0,1.8,0.6,1.8,1.5v4.6
		C-788.6,839.8-789.2,840.4-790,840.4z"/>
	<path class="st1" d="M-820,840.4h-11.4c-1.1,0-1.8-0.6-1.8-1.5v-4.6c0-0.9,0.7-1.5,1.8-1.5h11.4c1.1,0,1.8,0.6,1.8,1.5v4.6
		C-818.2,839.8-819,840.4-820,840.4z"/>
	<path class="st1" d="M-850.1,840.4h-11.4c-1.1,0-1.8-0.6-1.8-1.5v-4.6c0-0.9,0.7-1.5,1.8-1.5h11.4c1.1,0,1.8,0.6,1.8,1.5v4.6
		C-848.3,839.8-848.9,840.4-850.1,840.4z"/>
	<path class="st1" d="M-880.1,840.4h-11.4c-1.1,0-1.8-0.6-1.8-1.5v-4.6c0-0.9,0.7-1.5,1.8-1.5h11.4c1.1,0,1.8,0.6,1.8,1.5v4.6
		C-878.3,839.8-879,840.4-880.1,840.4z"/>
	<path class="st1" d="M-909.8,840.4h-11.4c-1.1,0-1.8-0.6-1.8-1.5v-4.6c0-0.9,0.7-1.5,1.8-1.5h11.4c1.1,0,1.8,0.6,1.8,1.5v4.6
		C-908.3,839.8-909.1,840.4-909.8,840.4z"/>
	<path class="st1" d="M-939.8,840.4h-11.4c-1.1,0-1.8-0.6-1.8-1.5v-4.6c0-0.9,0.7-1.5,1.8-1.5h11.4c1.1,0,1.8,0.6,1.8,1.5v4.6
		C-938,839.8-939.1,840.4-939.8,840.4z"/>
	<path class="st1" d="M-969.8,840.4h-11.4c-1.1,0-1.8-0.6-1.8-1.5v-4.6c0-0.9,0.7-1.5,1.8-1.5h11.4c1.1,0,1.8,0.6,1.8,1.5v4.6
		C-968,839.8-968.8,840.4-969.8,840.4z"/>
	<path class="st1" d="M-999.9,840.4h-11.4c-1.1,0-1.8-0.6-1.8-1.5v-4.6c0-0.9,0.7-1.5,1.8-1.5h11.4c1.1,0,1.8,0.6,1.8,1.5v4.6
		C-998.1,839.8-998.8,840.4-999.9,840.4z"/>
	<path class="st1" d="M-1029.9,840.4h-11.4c-1.1,0-1.8-0.6-1.8-1.5v-4.6c0-0.9,0.7-1.5,1.8-1.5h11.4c1.1,0,1.8,0.6,1.8,1.5v4.6
		C-1028.1,839.8-1028.8,840.4-1029.9,840.4z"/>
	<path class="st1" d="M-1059.6,840.4h-11.4c-1.1,0-1.8-0.6-1.8-1.5v-4.6c0-0.9,0.7-1.5,1.8-1.5h11.4c1.1,0,1.8,0.6,1.8,1.5v4.6
		C-1057.8,839.8-1058.9,840.4-1059.6,840.4z"/>
	<path class="st1" d="M-1089.6,840.4h-11.4c-1.1,0-1.8-0.6-1.8-1.5v-4.6c0-0.9,0.7-1.5,1.8-1.5h11.4c1.1,0,1.8,0.6,1.8,1.5v4.6
		C-1087.8,839.8-1088.5,840.4-1089.6,840.4z"/>
	<path class="st1" d="M-640.1,853.3h-11.4c-1.1,0-1.8-0.6-1.8-1.5v-4.6c0-0.9,0.7-1.5,1.8-1.5h11.4c1.1,0,1.8,0.6,1.8,1.5v4.6
		C-638.3,852.6-639.1,853.3-640.1,853.3z"/>
	<path class="st1" d="M-669.9,853.3h-11.4c-1.1,0-1.8-0.6-1.8-1.5v-4.6c0-0.9,0.7-1.5,1.8-1.5h11.4c1.1,0,1.8,0.6,1.8,1.5v4.6
		C-668.1,852.6-669.1,853.3-669.9,853.3z"/>
	<path class="st1" d="M-699.9,853.3h-11.4c-1.1,0-1.8-0.6-1.8-1.5v-4.6c0-0.9,0.7-1.5,1.8-1.5h11.4c1.1,0,1.8,0.6,1.8,1.5v4.6
		C-698.1,852.6-698.8,853.3-699.9,853.3z"/>
	<path class="st1" d="M-729.9,853.3h-11.4c-1.1,0-1.8-0.6-1.8-1.5v-4.6c0-0.9,0.7-1.5,1.8-1.5h11.4c1.1,0,1.8,0.6,1.8,1.5v4.6
		C-728.1,852.6-728.9,853.3-729.9,853.3z"/>
	<path class="st1" d="M-760,853.3h-11.4c-1.1,0-1.8-0.6-1.8-1.5v-4.6c0-0.9,0.7-1.5,1.8-1.5h11.4c1.1,0,1.8,0.6,1.8,1.5v4.6
		C-758.2,852.6-758.8,853.3-760,853.3z"/>
	<path class="st1" d="M-789.6,853.3H-801c-1.1,0-1.8-0.6-1.8-1.5v-4.6c0-0.9,0.7-1.5,1.8-1.5h11.4c1.1,0,1.8,0.6,1.8,1.5v4.6
		C-788.2,852.6-788.9,853.3-789.6,853.3z"/>
	<path class="st1" d="M-819.7,853.3h-11.4c-1.1,0-1.8-0.6-1.8-1.5v-4.6c0-0.9,0.7-1.5,1.8-1.5h11.4c1.1,0,1.8,0.6,1.8,1.5v4.6
		C-817.9,852.6-818.5,853.3-819.7,853.3z"/>
	<path class="st1" d="M-849.7,853.3h-11.4c-1.1,0-1.8-0.6-1.8-1.5v-4.6c0-0.9,0.7-1.5,1.8-1.5h11.4c1.1,0,1.8,0.6,1.8,1.5v4.6
		C-847.9,852.6-848.6,853.3-849.7,853.3z"/>
	<path class="st1" d="M-879.7,853.3h-11.4c-1.1,0-1.8-0.6-1.8-1.5v-4.6c0-0.9,0.7-1.5,1.8-1.5h11.4c1.1,0,1.8,0.6,1.8,1.5v4.6
		C-877.9,852.6-878.7,853.3-879.7,853.3z"/>
	<path class="st1" d="M-909.4,853.3h-11.4c-1.1,0-1.8-0.6-1.8-1.5v-4.6c0-0.9,0.7-1.5,1.8-1.5h11.4c1.1,0,1.8,0.6,1.8,1.5v4.6
		C-908,852.6-908.7,853.3-909.4,853.3z"/>
	<path class="st1" d="M-939.5,853.3h-11.4c-1.1,0-1.8-0.6-1.8-1.5v-4.6c0-0.9,0.7-1.5,1.8-1.5h11.4c1.1,0,1.8,0.6,1.8,1.5v4.6
		C-937.7,852.6-938.7,853.3-939.5,853.3z"/>
	<path class="st1" d="M-969.5,853.3H-981c-1.1,0-1.8-0.6-1.8-1.5v-4.6c0-0.9,0.7-1.5,1.8-1.5h11.4c1.1,0,1.8,0.6,1.8,1.5v4.6
		C-967.7,852.6-968.4,853.3-969.5,853.3z"/>
	<path class="st1" d="M-999.5,853.3h-11.4c-1.1,0-1.8-0.6-1.8-1.5v-4.6c0-0.9,0.7-1.5,1.8-1.5h11.4c1.1,0,1.8,0.6,1.8,1.5v4.6
		C-997.7,852.6-998.4,853.3-999.5,853.3z"/>
	<path class="st1" d="M-1029.6,853.3h-11.4c-1.1,0-1.8-0.6-1.8-1.5v-4.6c0-0.9,0.7-1.5,1.8-1.5h11.4c1.1,0,1.8,0.6,1.8,1.5v4.6
		C-1027.8,852.6-1028.5,853.3-1029.6,853.3z"/>
	<path class="st1" d="M-1059.2,853.3h-11.4c-1.1,0-1.8-0.6-1.8-1.5v-4.6c0-0.9,0.7-1.5,1.8-1.5h11.4c1.1,0,1.8,0.6,1.8,1.5v4.6
		C-1057.4,852.6-1058.5,853.3-1059.2,853.3z"/>
	<path class="st1" d="M-1089.3,853.3h-11.4c-1.1,0-1.8-0.6-1.8-1.5v-4.6c0-0.9,0.7-1.5,1.8-1.5h11.4c1.1,0,1.8,0.6,1.8,1.5v4.6
		C-1087.5,852.6-1088.2,853.3-1089.3,853.3z"/>
	<path class="st1" d="M-783.9,868.5h-116.3c-1.1,0-1.8-0.6-1.8-1.5v-4.6c0-0.9,0.7-1.5,1.8-1.5h116.3c1.1,0,1.8,0.6,1.8,1.5v4.6
		C-782.1,867.9-782.9,868.5-783.9,868.5z"/>
	<path class="st2" d="M-1033.5,609.6h10.1c3.2,0,5.7,2.2,5.7,4.9l0,0c0,2.8-2.5,4.9-5.7,4.9h-10.1c-3.2,0-5.7-2.2-5.7-4.9l0,0
		C-1039.2,611.8-1036.7,609.6-1033.5,609.6z"/>
	<path class="st2" d="M-917.3,609.6h10.1c3.2,0,5.7,2.2,5.7,4.9l0,0c0,2.8-2.5,4.9-5.7,4.9h-10.1c-3.2,0-5.7-2.2-5.7-4.9l0,0
		C-922.6,611.8-920.2,609.6-917.3,609.6z"/>
	<path class="st2" d="M-884.4,609.6h10.1c3.2,0,5.7,2.2,5.7,4.9l0,0c0,2.8-2.5,4.9-5.7,4.9h-10.1c-3.2,0-5.7-2.2-5.7-4.9l0,0
		C-889.7,611.8-887.3,609.6-884.4,609.6z"/>
	<path class="st2" d="M-1002,609h63.3c3.2,0,5.7,2.2,5.7,4.9l0,0c0,2.8-2.5,4.9-5.7,4.9h-63.3c-3.2,0-5.7-2.2-5.7-4.9l0,0
		C-1007.4,611.2-1004.9,609-1002,609z"/>
	<path class="st2" d="M-846.8,609h63.3c3.2,0,5.7,2.2,5.7,4.9l0,0c0,2.8-2.5,4.9-5.7,4.9h-63.3c-3.2,0-5.7-2.2-5.7-4.9l0,0
		C-852.5,611.2-850.1,609-846.8,609z"/>
	<path class="st2" d="M-1002.4,631.4h10.1c3.2,0,5.7,2.2,5.7,4.9l0,0c0,2.8-2.5,4.9-5.7,4.9h-10.1c-3.2,0-5.7-2.2-5.7-4.9l0,0
		C-1008.1,633.4-1005.6,631.4-1002.4,631.4z"/>
	<path class="st2" d="M-886.2,631.4h10.1c3.2,0,5.7,2.2,5.7,4.9l0,0c0,2.8-2.5,4.9-5.7,4.9h-10.1c-3.2,0-5.7-2.2-5.7-4.9l0,0
		C-891.9,633.4-889.4,631.4-886.2,631.4z"/>
	<path class="st2" d="M-853.3,631.4h10.1c3.2,0,5.7,2.2,5.7,4.9l0,0c0,2.8-2.5,4.9-5.7,4.9h-10.1c-3.2,0-5.7-2.2-5.7-4.9l0,0
		C-859,633.4-856.5,631.4-853.3,631.4z"/>
	<path class="st2" d="M-970.9,630.5h63.3c3.2,0,5.7,2.2,5.7,4.9l0,0c0,2.8-2.5,4.9-5.7,4.9h-63.3c-3.2,0-5.7-2.2-5.7-4.9l0,0
		C-976.3,632.5-974.1,630.5-970.9,630.5z"/>
	<path class="st2" d="M-815.7,630.5h63.3c3.2,0,5.7,2.2,5.7,4.9l0,0c0,2.8-2.5,4.9-5.7,4.9h-63.3c-3.2,0-5.7-2.2-5.7-4.9l0,0
		C-821.4,632.5-819,630.5-815.7,630.5z"/>
	<path class="st2" d="M-971.6,652.8h10.1c3.2,0,5.7,2.2,5.7,4.9l0,0c0,2.8-2.5,4.9-5.7,4.9h-10.1c-3.2,0-5.7-2.2-5.7-4.9l0,0
		C-976.9,654.9-974.5,652.8-971.6,652.8z"/>
	<path class="st2" d="M-855.1,652.8h10.1c3.2,0,5.7,2.2,5.7,4.9l0,0c0,2.8-2.5,4.9-5.7,4.9h-10.1c-3.2,0-5.7-2.2-5.7-4.9l0,0
		C-860.8,654.9-858.3,652.8-855.1,652.8z"/>
	<path class="st2" d="M-822.1,652.8h10.1c3.2,0,5.7,2.2,5.7,4.9l0,0c0,2.8-2.5,4.9-5.7,4.9h-10.1c-3.2,0-5.7-2.2-5.7-4.9l0,0
		C-827.9,654.9-825.4,652.8-822.1,652.8z"/>
	<path class="st2" d="M-939.8,652.1h63.3c3.2,0,5.7,2.2,5.7,4.9l0,0c0,2.8-2.5,4.9-5.7,4.9h-63.3c-3.2,0-5.7-2.2-5.7-4.9l0,0
		C-945.5,654.3-943.1,652.1-939.8,652.1z"/>
	<path class="st2" d="M-785,652.1h63.3c3.2,0,5.7,2.2,5.7,4.9l0,0c0,2.8-2.5,4.9-5.7,4.9H-785c-3.2,0-5.7-2.2-5.7-4.9l0,0
		C-790.4,654.3-787.8,652.1-785,652.1z"/>
	<path class="st2" d="M-940.5,674.4h10.1c3.2,0,5.7,2.2,5.7,4.9l0,0c0,2.8-2.5,4.9-5.7,4.9h-10.1c-3.2,0-5.7-2.2-5.7-4.9l0,0
		C-946.2,676.6-943.7,674.4-940.5,674.4z"/>
	<path class="st2" d="M-824.3,674.4h10.1c3.2,0,5.7,2.2,5.7,4.9l0,0c0,2.8-2.5,4.9-5.7,4.9h-10.1c-3.2,0-5.7-2.2-5.7-4.9l0,0
		C-829.7,676.6-827.1,674.4-824.3,674.4z"/>
	<path class="st2" d="M-791.4,674.4h10.1c3.2,0,5.7,2.2,5.7,4.9l0,0c0,2.8-2.5,4.9-5.7,4.9h-10.1c-3.2,0-5.7-2.2-5.7-4.9l0,0
		C-796.7,676.6-794.3,674.4-791.4,674.4z"/>
	<path class="st2" d="M-908.7,673.5h63.3c3.2,0,5.7,2.2,5.7,4.9l0,0c0,2.8-2.5,4.9-5.7,4.9h-63.3c-3.2,0-5.7-2.2-5.7-4.9l0,0
		C-914.4,675.7-911.9,673.5-908.7,673.5z"/>
	<path class="st2" d="M-917.3,760h10.1c3.2,0,5.7,2.2,5.7,4.9l0,0c0,2.8-2.5,4.9-5.7,4.9h-10.1c-3.2,0-5.7-2.2-5.7-4.9l0,0
		C-922.6,762.2-920.2,760-917.3,760z"/>
	<path class="st2" d="M-884.4,760h10.1c3.2,0,5.7,2.2,5.7,4.9l0,0c0,2.8-2.5,4.9-5.7,4.9h-10.1c-3.2,0-5.7-2.2-5.7-4.9l0,0
		C-889.7,762.2-887.3,760-884.4,760z"/>
	<path class="st2" d="M-846.8,760.9h63.3c3.2,0,5.7,2.2,5.7,4.9l0,0c0,2.8-2.5,4.9-5.7,4.9h-63.3c-3.2,0-5.7-2.2-5.7-4.9l0,0
		C-852.5,763.1-850.1,760.9-846.8,760.9z"/>
	<path class="st2" d="M-1033.5,760h10.1c3.2,0,5.7,2.2,5.7,4.9l0,0c0,2.8-2.5,4.9-5.7,4.9h-10.1c-3.2,0-5.7-2.2-5.7-4.9l0,0
		C-1039.2,762.2-1036.7,760-1033.5,760z"/>
	<path class="st2" d="M-1002,760.9h63.3c3.2,0,5.7,2.2,5.7,4.9l0,0c0,2.8-2.5,4.9-5.7,4.9h-63.3c-3.2,0-5.7-2.2-5.7-4.9l0,0
		C-1007.4,763.1-1004.9,760.9-1002,760.9z"/>
	<path class="st2" d="M-1002.4,738.6h10.1c3.2,0,5.7,2.2,5.7,4.9l0,0c0,2.8-2.5,4.9-5.7,4.9h-10.1c-3.2,0-5.7-2.2-5.7-4.9l0,0
		C-1008.1,740.5-1005.6,738.6-1002.4,738.6z"/>
	<path class="st2" d="M-886.2,738.6h10.1c3.2,0,5.7,2.2,5.7,4.9l0,0c0,2.8-2.5,4.9-5.7,4.9h-10.1c-3.2,0-5.7-2.2-5.7-4.9l0,0
		C-891.9,740.5-889.4,738.6-886.2,738.6z"/>
	<path class="st2" d="M-853.3,738.6h10.1c3.2,0,5.7,2.2,5.7,4.9l0,0c0,2.8-2.5,4.9-5.7,4.9h-10.1c-3.2,0-5.7-2.2-5.7-4.9l0,0
		C-859,740.5-856.5,738.6-853.3,738.6z"/>
	<path class="st2" d="M-970.9,739.2h63.3c3.2,0,5.7,2.2,5.7,4.9l0,0c0,2.8-2.5,4.9-5.7,4.9h-63.3c-3.2,0-5.7-2.2-5.7-4.9l0,0
		C-976.3,741.4-974.1,739.2-970.9,739.2z"/>
	<path class="st2" d="M-971.6,717h10.1c3.2,0,5.7,2.2,5.7,4.9l0,0c0,2.8-2.5,4.9-5.7,4.9h-10.1c-3.2,0-5.7-2.2-5.7-4.9l0,0
		C-976.9,719-974.5,717-971.6,717z"/>
	<path class="st2" d="M-855.1,717h10.1c3.2,0,5.7,2.2,5.7,4.9l0,0c0,2.8-2.5,4.9-5.7,4.9h-10.1c-3.2,0-5.7-2.2-5.7-4.9l0,0
		C-860.8,719-858.3,717-855.1,717z"/>
	<path class="st2" d="M-822.1,717h10.1c3.2,0,5.7,2.2,5.7,4.9l0,0c0,2.8-2.5,4.9-5.7,4.9h-10.1c-3.2,0-5.7-2.2-5.7-4.9l0,0
		C-827.9,719-825.4,717-822.1,717z"/>
	<path class="st2" d="M-939.8,717.9h63.3c3.2,0,5.7,2.2,5.7,4.9l0,0c0,2.8-2.5,4.9-5.7,4.9h-63.3c-3.2,0-5.7-2.2-5.7-4.9l0,0
		C-945.5,719.9-943.1,717.9-939.8,717.9z"/>
	<path class="st2" d="M-940.5,695.5h10.1c3.2,0,5.7,2.2,5.7,4.9l0,0c0,2.8-2.5,4.9-5.7,4.9h-10.1c-3.2,0-5.7-2.2-5.7-4.9l0,0
		C-946.2,697.6-943.7,695.5-940.5,695.5z"/>
	<path class="st2" d="M-824.3,695.5h10.1c3.2,0,5.7,2.2,5.7,4.9l0,0c0,2.8-2.5,4.9-5.7,4.9h-10.1c-3.2,0-5.7-2.2-5.7-4.9l0,0
		C-829.7,697.6-827.1,695.5-824.3,695.5z"/>
	<path class="st2" d="M-791.4,695.5h10.1c3.2,0,5.7,2.2,5.7,4.9l0,0c0,2.8-2.5,4.9-5.7,4.9h-10.1c-3.2,0-5.7-2.2-5.7-4.9l0,0
		C-796.7,697.6-794.3,695.5-791.4,695.5z"/>
	<path class="st2" d="M-908.7,696.1h63.3c3.2,0,5.7,2.2,5.7,4.9l0,0c0,2.8-2.5,4.9-5.7,4.9h-63.3c-3.2,0-5.7-2.2-5.7-4.9l0,0
		C-914.4,698.3-911.9,696.1-908.7,696.1z"/>
</g>
<g>
	<path class="st3" d="M184.7,895c1.8,2.5,4.3,3.6,6.8,3.6h486.3c5,0,8.9-4.4,8.9-10.1c0-0.8,0-1.2-0.3-2.1l-7.5-40.3
		c-0.7-3.2-2.9-6.1-5.7-7.3c-1.1-0.4-2.1-0.8-3.2-0.8H199c-1.1,0-2.1,0.4-3.2,0.8c-2.9,1.2-5,4-5.7,7.3l-7.5,40.3
		C182.2,889.7,182.9,892.6,184.7,895z"/>
	<path class="st1" d="M635.2,855.5h-11.4c-1.1,0-1.8-0.8-1.8-2.1v-6.1c0-1.2,0.7-2.1,1.8-2.1h11.4c1.1,0,1.8,0.8,1.8,2.1v6.1
		C637,854.7,635.9,855.5,635.2,855.5z"/>
	<path class="st1" d="M605.2,855.5h-11.4c-1.1,0-1.8-0.8-1.8-2.1v-6.1c0-1.2,0.7-2.1,1.8-2.1h11.4c1.1,0,1.8,0.8,1.8,2.1v6.1
		C607,854.7,606.3,855.5,605.2,855.5z"/>
	<path class="st1" d="M575.2,855.5h-11.4c-1.1,0-1.8-0.8-1.8-2.1v-6.1c0-1.2,0.7-2.1,1.8-2.1h11.4c1.1,0,1.8,0.8,1.8,2.1v6.1
		C577,854.7,576.2,855.5,575.2,855.5z"/>
	<path class="st1" d="M545.1,855.5h-11.4c-1.1,0-1.8-0.8-1.8-2.1v-6.1c0-1.2,0.7-2.1,1.8-2.1h11.4c1.1,0,1.8,0.8,1.8,2.1v6.1
		C546.9,854.7,546.3,855.5,545.1,855.5z"/>
	<path class="st1" d="M515.4,855.5h-11.8c-1.1,0-1.8-0.8-1.8-2.1v-6.1c0-1.2,0.7-2.1,1.8-2.1H515c1.1,0,1.8,0.8,1.8,2.1v6.1
		C516.9,854.7,516.2,855.5,515.4,855.5z"/>
	<path class="st1" d="M485.4,855.5H474c-1.1,0-1.8-0.8-1.8-2.1v-6.1c0-1.2,0.7-2.1,1.8-2.1h11.4c1.1,0,1.8,0.8,1.8,2.1v6.1
		C487.2,854.7,486.5,855.5,485.4,855.5z"/>
	<path class="st1" d="M455.4,855.5H444c-1.1,0-1.8-0.8-1.8-2.1v-6.1c0-1.2,0.7-2.1,1.8-2.1h11.4c1.1,0,1.8,0.8,1.8,2.1v6.1
		C457.2,854.7,456.5,855.5,455.4,855.5z"/>
	<path class="st1" d="M425.3,855.5h-11.4c-1.1,0-1.8-0.8-1.8-2.1v-6.1c0-1.2,0.7-2.1,1.8-2.1h11.4c1.1,0,1.8,0.8,1.8,2.1v6.1
		C427.1,854.7,426.4,855.5,425.3,855.5z"/>
	<path class="st1" d="M395.7,855.5h-11.4c-1.1,0-1.8-0.8-1.8-2.1v-6.1c0-1.2,0.7-2.1,1.8-2.1h11.4c1.1,0,1.8,0.8,1.8,2.1v6.1
		C397.1,854.7,396.4,855.5,395.7,855.5z"/>
	<path class="st1" d="M365.6,855.5h-11.4c-1.1,0-1.8-0.8-1.8-2.1v-6.1c0-1.2,0.7-2.1,1.8-2.1h11.4c1.1,0,1.8,0.8,1.8,2.1v6.1
		C367.4,854.7,366.4,855.5,365.6,855.5z"/>
	<path class="st1" d="M335.5,855.5h-11.4c-1.1,0-1.8-0.8-1.8-2.1v-6.1c0-1.2,0.7-2.1,1.8-2.1h11.4c1.1,0,1.8,0.8,1.8,2.1v6.1
		C337.3,854.7,336.7,855.5,335.5,855.5z"/>
	<path class="st1" d="M305.6,855.5h-11.4c-1.1,0-1.8-0.8-1.8-2.1v-6.1c0-1.2,0.7-2.1,1.8-2.1h11.4c1.1,0,1.8,0.8,1.8,2.1v6.1
		C307.4,854.7,306.6,855.5,305.6,855.5z"/>
	<path class="st1" d="M275.5,855.5h-11.4c-1.1,0-1.8-0.8-1.8-2.1v-6.1c0-1.2,0.7-2.1,1.8-2.1h11.4c1.1,0,1.8,0.8,1.8,2.1v6.1
		C277.3,854.7,276.6,855.5,275.5,855.5z"/>
	<path class="st1" d="M245.9,855.5h-11.4c-1.1,0-1.8-0.8-1.8-2.1v-6.1c0-1.2,0.7-2.1,1.8-2.1h11.4c1.1,0,1.8,0.8,1.8,2.1v6.1
		C247.7,854.7,246.6,855.5,245.9,855.5z"/>
	<path class="st1" d="M215.8,855.5h-11.4c-1.1,0-1.8-0.8-1.8-2.1v-6.1c0-1.2,0.7-2.1,1.8-2.1h11.4c1.1,0,1.8,0.8,1.8,2.1v6.1
		C217.6,854.7,216.9,855.5,215.8,855.5z"/>
	<path class="st1" d="M665.3,872.5h-11.4c-1.1,0-1.8-0.8-1.8-2.1v-6.1c0-1.2,0.7-2.1,1.8-2.1h11.4c1.1,0,1.8,0.8,1.8,2.1v6.1
		C667.1,871.7,666.3,872.5,665.3,872.5z"/>
	<path class="st1" d="M635.6,872.5h-11.4c-1.1,0-1.8-0.8-1.8-2.1v-6.1c0-1.2,0.7-2.1,1.8-2.1h11.4c1.1,0,1.8,0.8,1.8,2.1v6.1
		C637.4,871.7,636.4,872.5,635.6,872.5z"/>
	<path class="st1" d="M605.5,872.5h-11.4c-1.1,0-1.8-0.8-1.8-2.1v-6.1c0-1.2,0.7-2.1,1.8-2.1h11.4c1.1,0,1.8,0.8,1.8,2.1v6.1
		C607.3,871.7,606.6,872.5,605.5,872.5z"/>
	<path class="st1" d="M575.6,872.5h-11.4c-1.1,0-1.8-0.8-1.8-2.1v-6.1c0-1.2,0.7-2.1,1.8-2.1h11.4c1.1,0,1.8,0.8,1.8,2.1v6.1
		C577.3,871.7,576.6,872.5,575.6,872.5z"/>
	<path class="st1" d="M545.5,872.5h-11.4c-1.1,0-1.8-0.8-1.8-2.1v-6.1c0-1.2,0.7-2.1,1.8-2.1h11.4c1.1,0,1.8,0.8,1.8,2.1v6.1
		C547.3,871.7,546.6,872.5,545.5,872.5z"/>
	<path class="st1" d="M515.9,872.5h-11.4c-1.1,0-1.8-0.8-1.8-2.1v-6.1c0-1.2,0.7-2.1,1.8-2.1h11.4c1.1,0,1.8,0.8,1.8,2.1v6.1
		C517.2,871.7,516.5,872.5,515.9,872.5z"/>
	<path class="st1" d="M485.8,872.5h-11.4c-1.1,0-1.8-0.8-1.8-2.1v-6.1c0-1.2,0.7-2.1,1.8-2.1h11.4c1.1,0,1.8,0.8,1.8,2.1v6.1
		C487.6,871.7,486.9,872.5,485.8,872.5z"/>
	<path class="st1" d="M455.7,872.5h-11.4c-1.1,0-1.8-0.8-1.8-2.1v-6.1c0-1.2,0.7-2.1,1.8-2.1h11.4c1.1,0,1.8,0.8,1.8,2.1v6.1
		C457.5,871.7,456.8,872.5,455.7,872.5z"/>
	<path class="st1" d="M425.7,872.5h-11.4c-1.1,0-1.8-0.8-1.8-2.1v-6.1c0-1.2,0.7-2.1,1.8-2.1h11.4c1.1,0,1.8,0.8,1.8,2.1v6.1
		C427.5,871.7,426.8,872.5,425.7,872.5z"/>
	<path class="st1" d="M396,872.5h-11.4c-1.1,0-1.8-0.8-1.8-2.1v-6.1c0-1.2,0.7-2.1,1.8-2.1H396c1.1,0,1.8,0.8,1.8,2.1v6.1
		C397.5,871.7,396.7,872.5,396,872.5z"/>
	<path class="st1" d="M365.9,872.5h-11.4c-1.1,0-1.8-0.8-1.8-2.1v-6.1c0-1.2,0.7-2.1,1.8-2.1h11.4c1.1,0,1.8,0.8,1.8,2.1v6.1
		C367.7,871.7,366.7,872.5,365.9,872.5z"/>
	<path class="st1" d="M336,872.5h-11.4c-1.1,0-1.8-0.8-1.8-2.1v-6.1c0-1.2,0.7-2.1,1.8-2.1H336c1.1,0,1.8,0.8,1.8,2.1v6.1
		C337.8,871.7,337,872.5,336,872.5z"/>
	<path class="st1" d="M305.9,872.5h-11.4c-1.1,0-1.8-0.8-1.8-2.1v-6.1c0-1.2,0.7-2.1,1.8-2.1h11.4c1.1,0,1.8,0.8,1.8,2.1v6.1
		C307.7,871.7,307,872.5,305.9,872.5z"/>
	<path class="st1" d="M275.8,872.5h-11.4c-1.1,0-1.8-0.8-1.8-2.1v-6.1c0-1.2,0.7-2.1,1.8-2.1h11.4c1.1,0,1.8,0.8,1.8,2.1v6.1
		C277.6,871.7,277,872.5,275.8,872.5z"/>
	<path class="st1" d="M246.2,872.5h-11.4c-1.1,0-1.8-0.8-1.8-2.1v-6.1c0-1.2,0.7-2.1,1.8-2.1h11.4c1.1,0,1.8,0.8,1.8,2.1v6.1
		C248,871.7,246.9,872.5,246.2,872.5z"/>
	<path class="st1" d="M216.1,872.5h-11.4c-1.1,0-1.8-0.8-1.8-2.1v-6.1c0-1.2,0.7-2.1,1.8-2.1h11.4c1.1,0,1.8,0.8,1.8,2.1v6.1
		C217.9,871.7,217.3,872.5,216.1,872.5z"/>
	<path class="st1" d="M521.6,892.6H405.3c-1.1,0-1.8-0.8-1.8-2.1v-6.1c0-1.2,0.7-2.1,1.8-2.1h116.3c1.1,0,1.8,0.8,1.8,2.1v6.1
		C523.3,891.8,522.6,892.6,521.6,892.6z"/>
</g>
<g>
	<g>
		<path class="st4" d="M-90.7,1046.9l-47.5-64.4L11.6,880.4l61.8-58.7c25.4-24.1,68.6-26,96.9-4.3c8.9,6.7,15.4,15.6,19.3,25.1l0,0
			c11.4,30-6.8,62.4-41.5,73.3l-97.6,30.9L-90.7,1046.9z"/>
		<path class="st1" d="M-856.6,699.4l0.7,2.2l0,0l23.3,60.5l26.8,70l50.4,131.4l0.3,20.4l0,0l3.6,164.1l-10.4,22.3l11.8,36.4
			c0,0-5.4-55.1-34.3-23.5c-16.4,18.1-35.4,36.4-51.1,53.8c22.9,7.9,46.2,15,69.8,21.4c5,1.5,10.4,2.8,15.4,4
			c1.1,0.3,2.1,0.6,3.2,0.9c78.4,19.8,159.1,30.9,241,33c4.3,0,8.3,0.3,12.5,0.3c1.5,0,2.9,0,4.3,0c4.7,0,8.9,0,13.6,0
			c9.3,0,18.2,0,27.5-0.3c67.6-1.5,134.8-9.5,200.6-23.2c-0.3-23.2-1.8-50.1-3.6-79.2c-0.7-14.1-19.3-29.7-20.3-44.3
			c-0.7-11.3,15.8-21.7,14.6-33c-5.7-69.6-12.5-43.1-17.5-92.3c-0.3-4.9-1.1-9.5-1.5-14.1c-3.2-31.7-5.7-51.7-5.7-51.7l21.8-118.2
			l34.2-185.6l-2.5-3.7l-2.9-1.2l-181.7-77l-10.1-21.7c-5.7-12.8-20.3-21.1-36.1-21.1l-119.8-0.3c-12.5,0-24.4,5.2-31.9,13.8
			l-32.5,38.5L-856.6,699.4z"/>
		<path class="st1" d="M-727.5,934.4l-27.2,49.5l-18.6,33.9l-31.9,142.5l-16.1,14.4l-13.6-51.4l-143,27.2
			c-4.7-22.3-1.5,0.6-4.3-23.8c0.7-0.6,1.8-1.5,2.5-2.2c2.1-1.8,4.3-3.7,4.3-5.2c-1.8-84.3,3.2-227.7,43.9-314.8
			c6.5-14.1,15-27.5,25-40.1c0.7-0.9,1.5-1.8,2.5-2.8c19-22.6,30.7-44.6,47.5-60.5l0,0l0.3-0.3l0,0l115.8-52.6l5,119.5l3.6,85.9
			L-727.5,934.4z"/>
		<path class="st1" d="M-309.1,948.5l34,62l11.8,21.7l31.8,142.5l15.8,14.4l13.6-51.4l6.5-1.2l116.3-20.4l34,91.7
			c15.8-22.3,10.7-51.1-11.8-68.7c-2.1-1.8-4.3-3.7-4.3-5.2c1.8-99-5-280.2-69.4-354.8c-20.5-23.6-32.7-47.1-50.6-63.7l0,0
			l-43.3-60.5l-2.5-3.7l-2.9-1.2L-309.1,948.5z"/>
		<ellipse id="a657ec4b-47ce-4d2a-9c58-81a811696ca9" class="st4" cx="-514.4" cy="364.4" rx="159.5" ry="136.3"/>
		<path class="st3" d="M-299.1,269.4c-2.5-2.2-6-3.7-9.6-3.7l2.5-5.9c2.5-5.5-0.7-11.9-7.5-13.8c-2.1-0.6-4.7-0.9-6.8-0.6l-8.6,1.5
			l0.7-4.9c1.1-5.9-3.9-11.3-10.7-12.2c-2.1-0.3-4.3,0-6,0.6c-3.9,1.2-8.3,0.9-11.4-0.6c-3.6-1.5-6-4.6-6.8-7.9l-2.9-12.5l-0.3-0.6
			c-14.6-21.1-43.3-36.4-77.9-42.2c-31.1-4.9-62.9-2.5-93.3,0c-12.2,0.9-25.7,2.2-37.2,7.9c-9.6,5.2-17.9,15.3-16.1,25.7
			c-30.4-7.9-62.6,7.9-78.7,27.8c-19,23.8-22.1,53.5-22.6,76.7c-1.5,55.1,11.8,99.9,39.3,133.5c2.1,2.5,2.5,7.6,6.5,9.1l-0.7-1.2
			c4.3,1.8,8.9,4.9,7.2,8.2c-4.7,9.5,27.2,30.3,49.7,37c41.1,12.5,96.1,11.6,134.5,7l1.5-7.6c14-1.5,23.6-4.6,26.5-9.5
			c5-3.7,8.9-6.7,12.5-9.8l0,0c0,0,0.3,0,0.3-0.3c17.5-14.4,21.5-22.3,23.3-34.8c1.8-12.2-1.5-24.4-4.7-35.4
			c66.9,8.8-26.5-61.1,36.1-74.6c0.7-0.3,1.5-0.3,2.1-0.3c1.8-0.3,3.6-0.6,5.4-1.2c8.6-1.8,16.4-4.9,23.9-8.8
			c17.5-9.1,23.3-21.1,32.2-34.8C-294.8,277.7-295.5,272.8-299.1,269.4z"/>
	</g>
	<path class="st3" d="M49.1,958.1c0,5.5,0,12.8-0.3,22c0,1.2,0,2.5,0,4c-0.3,17.2-1.1,31.1-1.8,47c0,1.2,0,2.2,0,3.4
		c-1.1,22-2.5,48-5.4,88.6c-5,75.5-14,10.4-22.6,36.7c-0.3,1.2-1.1,2.8-1.5,4.6c-1.5,6.7-3.6,13.1-6.8,19.2c-4.7,2.5-9.6,4.6-14.3,7
		c-13.6,6.4-27.2,12.5-41.1,18.6c-7.8,3.4-15.8,6.4-23.6,9.8c-1.1,0.6-2.5,0.9-3.6,1.5c-40.4,15.9-81.8,29.4-124.4,40.7
		c-8.3,2.2-16.4,4.3-25,6.2c-8.6,2.2-17.5,4-26.2,5.9c-65.8,13.8-133,21.7-200.6,23.2c-8.9,0.3-18.2,0.3-27.5,0.3
		c-4.7,0-8.9,0-13.6,0c-1.5,0-2.9,0-4.3,0c-3.9,0-8.3,0-12.5-0.3c-81.5-2.2-162.7-13.5-240.7-33l-3.2-0.9c-5-1.2-10.4-2.8-15.4-4
		c-23.6-6.4-46.8-13.5-69.8-21.4c-17.5-6.2-34.7-12.5-51.9-19.2c0,0-0.3,0-0.3-0.3c-3.6-1.5-7.2-2.8-10.7-4.3
		c-0.3-0.3-1.1-0.3-1.5-0.6c-13.2-5.5-26.5-11.3-39.7-17.5c-11.1-21.7-26.5-25.7-36.1-44.6c-2.9-5.5-4.7-11.6-6-17.5c0,0,0,0,0-0.3
		c1.1,11.3-4.3-20.1,0,0c0-0.3,0-0.9,0-1.2c0-1.2-0.3-2.5-0.3-4c-12.2-102.4-11.4-219.4-16.8-316.1c-0.3-6.2-0.7-12.2-1.1-18.1
		c0-1.8-0.3-3.7-0.3-5.5c0.3-0.6,0.3-1.2,0.7-1.5c0-0.3,0-0.3,0.3-0.6c0-0.3,0.3-0.3,0.3-0.6c0,0,0-0.3,0.3-0.3v-0.3
		c0.3-0.3,0.7-0.9,1.1-1.2c0-0.3,0.3-0.3,0.3-0.6s0.3-0.3,0.3-0.3l0.3-0.3l0.3-0.3c0,0,0-0.3,0.3-0.3c0.3-0.3,0.7-0.6,1.1-0.9
		c1.5-0.9,2.5-1.8,3.9-2.8c0.3-0.3,1.1-0.6,1.5-0.9c3.6-1.8,7.5-3.4,11.4-4.6c1.5-0.3,2.9-0.9,4.3-1.2c0.3,0,1.1-0.3,1.5-0.3
		c0.7-0.3,1.5-0.3,2.5-0.6c3.9-0.9,8.6-1.8,13.2-2.8c0.7,0,1.1-0.3,1.8-0.3s1.8-0.3,2.5-0.3c1.1-0.3,2.5-0.3,3.6-0.6
		c10.7-1.5,22.6-2.5,36.1-3.1c1.5,0,2.5,0,3.6-0.3c1.5,0,2.9,0,4.3-0.3c1.5,0,2.5,0,3.9,0s2.5,0,3.9,0c3.6,0,7.2-0.3,11.1-0.3
		c10.7-0.3,22.1,0,34,0c5.4,0,11.1,0.3,17.2,0.6c0.3,0,0.7,0,1.1,0c5,0,10.1,0.3,15.4,0.6c3.6,0,7.2,0.3,11.1,0.6
		c3.6,0.3,6.8,0.3,10.4,0.6c2.9,0,5.4,0.3,8.3,0.6c2.5,0,4.7,0.3,7.2,0.3l3.2,0.3c1.8,0,3.6,0.3,5.4,0.3c3.9,0.3,7.8,0.6,11.8,0.9
		c3.9,0.3,7.8,0.6,12.2,0.9s8.3,0.6,12.2,0.9c0.3,0,0.7,0,1.1,0c3.6,0.3,7.5,0.6,11.1,0.9c0.7,0,1.8,0,2.5,0.3
		c3.6,0.3,7.2,0.6,10.7,0.9c1.1,0,2.1,0.3,3.2,0.3c2.9,0.3,5.7,0.6,8.6,0.9c3.6,0.3,7.5,0.6,11.4,1.2c2.9,0.3,5.7,0.6,8.6,0.9
		c4.7,0.6,9.3,0.9,13.6,1.5c1.8,0.3,3.6,0.3,5.4,0.6c13.2,1.5,26.5,3.1,40,4.6c20.3,2.5,41.1,5.2,62.3,7.9
		c21.1,3.1,42.2,6.2,63.3,9.1c5.4,0.9,10.7,1.5,16.1,2.5c2.5,0.3,5,0.9,7.2,1.2c4.3,0.6,8.3,1.2,12.5,2.2c4.3,0.6,8.3,1.2,12.5,2.2
		c5,0.9,10.1,1.5,15,2.5c32.5,5.5,64.7,11.3,96.6,17.5c5.4,0.9,10.4,2.2,15.4,3.1c10.4,2.2,20.3,4,30.7,6.2c2.9,0.6,5.4,1.2,8.3,1.8
		c6.8,1.5,13.6,3.1,20.3,4.6l1.1,0.3c5,0.9,10.1,2.2,14.6,3.1c11.4,2.5,22.9,5.2,34,7.6c7.5,1.8,14.6,3.4,21.8,5.2
		c10.7,2.8,21.5,5.5,31.4,7.9c2.5,0.6,5,1.2,7.5,2.2c7.5,2.2,15,4,22.1,6.2c5.7,1.5,11.4,3.1,16.8,4.9c5.4,1.5,10.7,3.4,16.1,4.9
		c3.6,0.9,6.8,2.2,10.1,3.1c4.7,1.5,9.6,3.1,14.3,4.6c1.5,0.6,2.9,0.9,4.3,1.5c1.1,0.3,1.8,0.6,2.5,0.9c1.8,0.6,3.6,1.2,5,1.8
		c1.8,0.6,3.2,1.2,5,1.8s3.2,1.2,4.7,1.8c1.8,0.6,3.2,1.2,4.7,1.8s2.5,0.9,3.9,1.5c2.5,0.9,5,1.8,7.5,2.8c1.1,0.6,2.5,0.9,3.6,1.5
		l2.9,1.2c0.3,0.3,0.7,0.3,1.1,0.6c1.1,0.3,1.8,0.9,2.9,1.2c2.1,0.9,4.3,1.8,6,2.5c2.9,1.2,5.4,2.5,7.8,3.4c2.5,1.2,5,2.5,7.5,3.4
		c0.3,0.3,0.7,0.3,1.1,0.6c0.7,0.3,1.1,0.6,1.8,0.9c1.8,0.9,3.6,1.8,5.4,2.8c3.6,1.8,6.8,3.7,9.6,5.5c0.7,0.3,1.5,0.9,2.1,1.2
		c2.1,1.5,4.3,2.8,6.5,4l0,0c0.7,0.3,1.5,0.9,1.8,1.2c0.7,0.3,1.1,0.9,1.8,1.2c1.8,1.5,3.6,2.8,5,4c0.3,0.3,1.1,0.9,1.5,1.2
		c0.3,0,0.3,0.3,0.7,0.6c0.7,0.6,1.5,1.2,1.8,1.8c0,0,0,0.3,0.3,0.3c0.7,0.9,1.8,1.8,2.5,2.5c0.3,0.3,0.7,0.9,1.1,1.2
		c0.3,0.6,0.7,0.9,1.1,1.5c0.3,0.3,0.7,0.9,1.1,1.2c0.7,1.2,1.5,2.2,1.8,3.4c0.3,0.9,0.7,1.5,1.1,2.5
		C48.8,956.5,49.1,957.4,49.1,958.1z"/>
	<path class="st5" d="M49.1,958.1c0,5.5,0,12.8-0.3,22c0,1.2,0,2.5,0,4c-0.3,13.1-1.1,29.1-1.8,47c0,1.2,0,2.2,0,3.4
		c-1.1,22-2.5,48-5.4,88.6c-5,75.5-14,10.4-22.6,36.7c-24.7-12.8-51.5-26.3-80-40.4c-5-2.5-10.4-4.9-15.8-7.6
		c-57.6-27.5-121.6-56.2-188.8-84.6c-2.5-1.2-5.4-2.2-7.8-3.4c-153.7-64.8-321.1-128.1-457-170.2c-26.2-8.2-51.1-15.6-74.8-22
		c-49.7-13.5-92.2-22.9-125.5-27.2c-34.3-4.3-57.9-2.8-67.6,6.2c-0.3-6.2-0.7-12.2-1.1-18.1c0-1.8-0.3-3.7-0.3-5.5
		c0.3-0.6,0.3-0.9,0.7-1.5c0,0,0,0,0-0.3s0-0.3,0.3-0.6c0-0.3,0.3-0.3,0.3-0.6s0.3-0.3,0.3-0.6c0.3-0.3,0.7-0.9,1.1-1.2
		c0.3-0.3,0.7-0.6,1.1-0.9l0.3-0.3l0.3-0.3c0,0,0-0.3,0.3-0.3c0.3-0.3,0.7-0.6,1.1-0.9c1.5-0.9,2.5-1.8,3.9-2.8
		c0.3-0.3,1.1-0.6,1.5-0.9c3.6-1.8,7.5-3.4,11.4-4.6c1.5-0.3,2.9-0.9,4.3-1.2c0.3,0,1.1-0.3,1.5-0.3c0.7-0.3,1.5-0.3,2.5-0.6
		c3.9-0.9,8.6-1.8,13.2-2.8c1.5-0.3,2.9-0.6,4.3-0.6c1.1-0.3,2.5-0.3,3.6-0.6c10.7-1.5,22.6-2.5,36.1-3.1c1.5,0,2.5,0,3.6-0.3
		c1.5,0,2.9,0,4.3-0.3c1.5,0,2.5,0,3.9,0c1.5,0,2.5,0,3.9,0c3.6,0,7.2-0.3,11.1-0.3c10.7,0,22.1,0,34,0c5.4,0,11.1,0.3,17.2,0.6
		c0.3,0,0.7,0,1.1,0c5,0,10.1,0.3,15.4,0.6c3.6,0,7.2,0.3,11.1,0.6c3.6,0.3,6.8,0.3,10.4,0.6c2.9,0,5.4,0.3,8.3,0.6
		c2.5,0,4.7,0.3,7.2,0.3c2.9,0.3,5.7,0.3,8.6,0.6c3.9,0.3,7.8,0.6,11.8,0.9c3.9,0.3,7.8,0.6,12.2,0.9c4.3,0.3,8.3,0.6,12.2,0.9
		c0.3,0,0.7,0,1.1,0c3.6,0.3,7.5,0.6,11.1,0.9c20.8,1.8,42.2,4,64.4,6.4c13.2,1.5,26.5,3.1,40,4.6c20.3,2.5,41.1,5.2,62.3,7.9
		c21.1,3.1,42.2,6.2,63.3,9.1c5.4,0.9,10.7,1.5,16.1,2.5c6.5,0.9,13.2,2.2,19.7,3.1c4.3,0.6,8.3,1.2,12.5,2.2c5,0.9,10.1,1.5,15,2.5
		c32.5,5.5,64.7,11.3,96.6,17.5c5.4,0.9,10.4,2.2,15.4,3.1c10.4,2.2,20.3,4,30.7,6.2c2.9,0.6,5.4,1.2,8.3,1.8
		c6.8,1.5,13.6,3.1,20.3,4.3l0,0c0.3,0,0.7,0,1.1,0.3c5,0.9,10.1,2.2,14.6,3.4c11.4,2.5,22.9,5.2,34,7.6c7.5,1.8,14.6,3.7,21.8,5.2
		c10.7,2.8,21.5,5.5,31.4,7.9c2.5,0.6,5,1.2,7.5,2.2c7.5,2.2,15,4,22.1,6.2c5.7,1.5,11.4,3.1,16.8,4.9c5.4,1.5,10.7,3.4,16.1,4.9
		c3.6,0.9,6.8,2.2,10.1,3.1c5,1.5,9.6,3.1,14.3,4.6c1.5,0.6,2.9,0.9,4.3,1.5c2.5,0.9,5,1.8,7.5,2.8c1.8,0.6,3.2,1.2,5,1.8
		s3.2,1.2,4.7,1.8c1.8,0.6,3.2,1.2,4.7,1.8s2.5,0.9,3.9,1.5c2.5,0.9,5,1.8,7.5,2.8c1.1,0.6,2.5,0.9,3.6,1.5l2.9,1.2
		c0.3,0.3,0.7,0.3,1.1,0.6c2.9,1.2,6,2.5,8.9,3.7s5.4,2.5,7.8,3.4c2.9,1.2,5.7,2.8,8.6,4c0.7,0.3,1.1,0.6,1.8,0.9
		c1.8,0.9,3.6,1.8,5.4,2.8c3.6,1.8,6.8,3.7,9.6,5.5c2.9,1.8,5.7,3.7,8.3,5.2l0,0c1.1,0.9,2.5,1.8,3.6,2.5c1.8,1.5,3.6,2.8,5,4
		c0.3,0.3,1.1,0.9,1.5,1.2c0.3,0,0.3,0.3,0.7,0.6c0.7,0.6,1.5,1.5,2.1,2.2c0.7,0.9,1.8,1.8,2.5,2.5c0.3,0.3,0.7,0.9,1.1,1.2
		c0.3,0.6,0.7,0.9,1.1,1.5c0.3,0.3,0.7,0.9,1.1,1.2c0.7,1.2,1.5,2.2,1.8,3.4c0.3,0.9,0.7,1.5,1.1,2.5
		C48.8,956.5,49.1,957.4,49.1,958.1z"/>
</g>
</svg>
